<?xml version="1.0" encoding="utf-8"?>
<!-- Generator: Adobe Illustrator 18.0.0, SVG Export Plug-In . SVG Version: 6.00 Build 0)  -->
<svg version="1.1" id="Layer_1" xmlns="http://www.w3.org/2000/svg" xmlns:xlink="http://www.w3.org/1999/xlink" x="0px" y="0px"
	 viewBox="0 0 64 64" enable-background="new 0 0 64 64" xml:space="preserve">
<g transform="translate(0,-952.36218)">
	<g>
		<g>
			<path fill="#57B4AA" d="M32,969.6c-8.1,0-14.8,6.6-14.8,14.8c0,8.1,6.6,14.8,14.8,14.8s14.8-6.6,14.8-14.8
				C46.8,976.2,40.1,969.6,32,969.6z M32,996.9c-6.9,0-12.5-5.6-12.5-12.5c0-6.9,5.6-12.5,12.5-12.5s12.5,5.6,12.5,12.5
				C44.5,991.3,38.9,996.9,32,996.9z"/>
		</g>
		<g>
			<path fill="#57B4AA" d="M60,976h-3.9l-0.1-0.2c-0.3-0.8-0.6-1.6-1-2.4l-0.1-0.2l2.8-2.8c1.6-1.6,1.6-4.1,0-5.7l-6.1-6.1
				c-0.8-0.8-1.8-1.2-2.8-1.2c-1.1,0-2.1,0.4-2.8,1.2l-2.8,2.8l-0.2-0.1c-0.8-0.4-1.5-0.7-2.4-1l-0.2-0.1v-3.9c0-2.2-1.8-4-4-4h-8.6
				c-2.2,0-4,1.8-4,4v3.9l-0.2,0.1c-0.9,0.3-1.7,0.6-2.4,1l-0.2,0.1l-2.8-2.8c-0.8-0.8-1.8-1.2-2.8-1.2s-2.1,0.4-2.8,1.2l-6.1,6.1
				c-0.8,0.8-1.2,1.8-1.2,2.8c0,1.1,0.4,2.1,1.2,2.8l2.8,2.8L9,973.4c-0.4,0.9-0.7,1.7-1,2.4L7.9,976H4c-2.2,0-4,1.8-4,4v8.6
				c0,2.2,1.8,4,4,4h3.9l0.1,0.2c0.3,0.8,0.6,1.6,1,2.4l0.1,0.2l-2.8,2.8c-1.6,1.6-1.6,4.1,0,5.7l6.1,6.1c0.8,0.8,1.8,1.2,2.8,1.2
				s2.1-0.4,2.8-1.2l2.8-2.8l0.2,0.1c0.8,0.4,1.5,0.7,2.4,1l0.2,0.1v3.9c0,2.2,1.8,4,4,4h8.6c2.2,0,4-1.8,4-4v-3.9l0.2-0.1
				c0.9-0.3,1.7-0.6,2.4-1l0.2-0.1l2.8,2.8c0.8,0.8,1.8,1.2,2.8,1.2c1.1,0,2.1-0.4,2.8-1.2l6.1-6.1c1.6-1.6,1.6-4.1,0-5.7l-2.8-2.8
				l0.1-0.2c0.4-0.8,0.7-1.6,1-2.4l0.1-0.2H60c2.2,0,4-1.8,4-4v-8.6C64,977.8,62.2,976,60,976z M61.7,988.7c0,1-0.7,1.7-1.7,1.7
				h-4.7c-0.5,0-0.9,0.3-1.1,0.8c-0.4,1.4-1,2.7-1.7,4c-0.2,0.4-0.1,1,0.2,1.3l3.3,3.3c0.7,0.7,0.7,1.7,0,2.4l-6.1,6.1
				c-0.7,0.7-1.8,0.7-2.5,0l-3.3-3.3c-0.3-0.3-0.9-0.4-1.3-0.2c-1.2,0.7-2.6,1.2-4,1.7c-0.5,0.1-0.8,0.6-0.8,1.1v4.7
				c0,1-0.7,1.7-1.7,1.7h-8.6c-1,0-1.7-0.7-1.7-1.7v-4.7c0-0.5-0.3-1-0.8-1.1c-1.4-0.4-2.8-1-4-1.7c-0.4-0.2-1-0.1-1.3,0.2l-3.3,3.3
				c-0.7,0.7-1.8,0.7-2.5,0l-6.1-6.1c-0.7-0.7-0.7-1.7,0-2.4l3.3-3.3c0.4-0.4,0.4-0.9,0.2-1.3c-0.7-1.3-1.3-2.7-1.7-4
				c-0.1-0.5-0.6-0.8-1.1-0.8H4c-1,0-1.7-0.7-1.7-1.7v-8.6c0-1,0.7-1.7,1.7-1.7h4.7c0.5,0,0.9-0.3,1.1-0.8c0.4-1.4,1-2.7,1.7-4
				c0.2-0.4,0.1-1-0.2-1.4l-3.3-3.3c-0.7-0.7-0.7-1.7,0-2.4l6.1-6.1c0.7-0.7,1.8-0.7,2.5,0l3.3,3.3c0.3,0.3,0.9,0.4,1.3,0.2
				c1.2-0.7,2.6-1.2,4-1.7c0.5-0.1,0.8-0.6,0.8-1.1v-4.7c0-1,0.7-1.7,1.7-1.7h8.6c1,0,1.7,0.7,1.7,1.7v4.7c0,0.5,0.3,0.9,0.8,1.1
				c1.4,0.4,2.8,1,4,1.7c0.4,0.2,1,0.1,1.3-0.2l3.3-3.3c0.7-0.7,1.8-0.7,2.5,0l6.1,6.1c0.7,0.7,0.7,1.7,0,2.4l-3.3,3.3
				c-0.4,0.4-0.5,0.9-0.2,1.4c0.7,1.3,1.3,2.7,1.7,4c0.1,0.5,0.6,0.8,1.1,0.8H60c1,0,1.7,0.7,1.7,1.7V988.7z"/>
		</g>
	</g>
</g>
</svg>
