<?xml version="1.0" encoding="utf-8"?>
<!-- Generator: Adobe Illustrator 18.0.0, SVG Export Plug-In . SVG Version: 6.00 Build 0)  -->
<svg version="1.1" id="Layer_1" xmlns="http://www.w3.org/2000/svg" xmlns:xlink="http://www.w3.org/1999/xlink" x="0px" y="0px"
	 viewBox="0 0 58 58" enable-background="new 0 0 58 58" xml:space="preserve">
<g transform="translate(0,-952.36218)">
	<path fill="#477097" d="M25.1,952.4c-2.1,0-3.9,1.7-3.9,3.9v3.3c-0.8,0.3-1.5,0.6-2.2,0.9l-2.4-2.4c-1.5-1.5-4-1.5-5.5,0l-5.5,5.5
		c-1.5,1.5-1.5,4,0,5.5l2.4,2.4c-0.3,0.7-0.7,1.5-0.9,2.2H3.9c-2.1,0-3.9,1.7-3.9,3.9v7.7c0,2.1,1.7,3.9,3.9,3.9h3.3
		c0.3,0.8,0.5,1.5,0.9,2.2l-2.3,2.3c-1.5,1.5-1.5,4,0,5.5l5.5,5.5c1.5,1.5,4,1.5,5.5,0l2.4-2.4c0.7,0.3,1.5,0.6,2.2,0.9v3.3
		c0,2.1,1.7,3.9,3.9,3.9h7.7c2.1,0,3.9-1.7,3.9-3.9v-3.3c0.8-0.3,1.5-0.6,2.2-0.9l2.4,2.4c1.5,1.5,4,1.5,5.5,0l5.5-5.5
		c1.5-1.5,1.5-4,0-5.5l-2.3-2.3c0.3-0.7,0.6-1.5,0.9-2.2h3.3c2.1,0,3.9-1.7,3.9-3.9v-7.7c0-2.1-1.7-3.9-3.9-3.9h-3.3
		c-0.3-0.8-0.6-1.5-0.9-2.2l2.4-2.4c1.5-1.5,1.5-4,0-5.5l-5.5-5.5c-1.5-1.5-4-1.5-5.5,0l-2.4,2.4c-0.7-0.3-1.5-0.6-2.2-0.9v-3.3
		c0-2.1-1.7-3.9-3.9-3.9H25.1L25.1,952.4z M25.1,954.9h7.7c0.7,0,1.3,0.6,1.3,1.3v4.2c0,0.6,0.4,1.1,0.9,1.2
		c1.3,0.4,2.5,0.9,3.6,1.5c0.5,0.3,1.1,0.2,1.5-0.2l3-3c0.5-0.5,1.3-0.5,1.8,0l5.5,5.5c0.5,0.5,0.5,1.3,0,1.8l-3,3
		c-0.4,0.4-0.5,1-0.2,1.5c0.6,1.1,1.1,2.3,1.5,3.6c0.2,0.5,0.7,0.9,1.2,0.9h4.2c0.7,0,1.3,0.6,1.3,1.3v7.7c0,0.7-0.6,1.3-1.3,1.3
		h-4.2c-0.6,0-1.1,0.4-1.2,0.9c-0.4,1.3-0.9,2.5-1.5,3.6c-0.3,0.5-0.2,1.1,0.2,1.5l3,3c0.5,0.5,0.5,1.3,0,1.8l-5.5,5.5
		c-0.5,0.5-1.3,0.5-1.8,0l-3-3c-0.4-0.4-1-0.5-1.5-0.2c-1.1,0.6-2.3,1.1-3.6,1.5c-0.5,0.2-0.9,0.7-0.9,1.2v4.2
		c0,0.7-0.6,1.3-1.3,1.3h-7.7c-0.7,0-1.3-0.6-1.3-1.3v-4.2c0-0.6-0.4-1.1-0.9-1.2c-1.3-0.4-2.5-0.9-3.6-1.5
		c-0.5-0.3-1.1-0.2-1.5,0.2l-3,3c-0.5,0.5-1.3,0.5-1.8,0l-5.5-5.5c-0.5-0.5-0.5-1.3,0-1.8l3-3c0.4-0.4,0.5-1,0.2-1.5
		c-0.6-1.1-1.1-2.3-1.5-3.6c-0.2-0.5-0.7-0.9-1.2-0.9H3.9c-0.7,0-1.3-0.6-1.3-1.3v-7.7c0-0.7,0.6-1.3,1.3-1.3h4.2
		c0.6,0,1.1-0.4,1.2-0.9c0.4-1.3,0.9-2.4,1.5-3.6c0.3-0.5,0.2-1.1-0.2-1.5l-3-3c-0.5-0.5-0.5-1.3,0-1.8l5.5-5.5
		c0.5-0.5,1.3-0.5,1.8,0l3,3c0.4,0.4,1,0.5,1.5,0.2c1.1-0.6,2.3-1.1,3.6-1.5c0.5-0.2,0.9-0.7,0.9-1.2v-4.2
		C23.8,955.5,24.4,954.9,25.1,954.9z M29,967.8c-7.5,0-13.5,6.1-13.5,13.5c0,7.5,6.1,13.5,13.5,13.5s13.5-6.1,13.5-13.5
		C42.5,973.9,36.5,967.8,29,967.8L29,967.8z M29,970.4c6.1,0,11,4.9,11,11c0,6.1-4.9,11-11,11s-11-4.9-11-11S22.9,970.4,29,970.4
		L29,970.4z"/>
</g>
</svg>
