<?xml version="1.0" encoding="utf-8"?>
<!-- Generator: Adobe Illustrator 18.0.0, SVG Export Plug-In . SVG Version: 6.00 Build 0)  -->
<svg version="1.1" id="Layer_1" xmlns="http://www.w3.org/2000/svg" xmlns:xlink="http://www.w3.org/1999/xlink" x="0px" y="0px"
	 viewBox="0 0 233 233" enable-background="new 0 0 233 233" xml:space="preserve">
<g>
	<g>
		<path fill="#FFFFFF" d="M116.5,231.5c-63.4,0-115-51.6-115-115c0-63.4,51.6-115,115-115c63.4,0,115,51.6,115,115
			C231.5,179.9,179.9,231.5,116.5,231.5z"/>
		<path fill="#B397FF" d="M116.5,3c30.3,0,58.8,11.8,80.3,33.2S230,86.2,230,116.5s-11.8,58.8-33.2,80.3S146.8,230,116.5,230
			c-30.3,0-58.8-11.8-80.3-33.2S3,146.8,3,116.5s11.8-58.8,33.2-80.3S86.2,3,116.5,3 M116.5,0C52.2,0,0,52.2,0,116.5
			S52.2,233,116.5,233S233,180.8,233,116.5S180.8,0,116.5,0L116.5,0z"/>
	</g>
	<g>
		<defs>
			<circle id="SVGID_1_" cx="116.5" cy="116.5" r="113.5"/>
		</defs>
		<clipPath id="SVGID_2_">
			<use xlink:href="#SVGID_1_"  overflow="visible"/>
		</clipPath>
		<g clip-path="url(#SVGID_2_)">
			<g>
				<polygon fill="#E6D9FF" points="-536.8,140.5 -590.9,114.7 -437.1,41.4 -383,67.1 -536.7,140.5 				"/>
				<polygon fill="#E6D9FF" points="79.1,140.5 25.1,114.7 178.9,41.4 233,67.1 79.2,140.5 				"/>
				<polygon fill="#E6D9FF" points="387.1,140.5 333,114.7 486.8,41.4 540.9,67.1 387.2,140.5 				"/>
				<polygon fill="#E6D9FF" points="-228.9,140.5 -282.9,114.7 -129.1,41.4 -75,67.1 -228.8,140.5 				"/>
				<polygon fill="#E6D9FF" points="695,140.5 641,114.7 794.8,41.4 848.9,67.1 695.1,140.5 				"/>
				<polygon fill="#E6D9FF" points="-1207,114.8 -1206.9,114.8 -1053,41.4 -998.9,67.1 -1152.7,140.5 -1152.7,140.5 -1152.7,212.4 
					-1207,212.4 				"/>
				<polygon fill="#E6D9FF" points="-844.8,140.5 -898.8,114.7 -745,41.4 -690.9,67.1 -844.7,140.5 				"/>
				<polygon fill="#E6D9FF" points="1003,140.5 949,114.7 1102.8,41.4 1156.9,67.1 1003.1,140.5 				"/>
				<polygon fill="#E6D9FF" points="-591.1,114.8 -690.9,67.1 -690.8,67.1 -590.9,114.7 -591,114.8 				"/>
				<polygon fill="#E6D9FF" points="-899,114.8 -998.9,67.1 -998.7,67.1 -898.8,114.7 -899,114.8 				"/>
				<polygon fill="#E6D9FF" points="-283.1,114.8 -383,67.1 -382.8,67.1 -282.9,114.7 -283,114.8 				"/>
				<polygon fill="#E6D9FF" points="948.8,114.8 848.9,67.1 849.1,67.1 949,114.7 948.8,114.8 				"/>
				<polygon fill="#E6D9FF" points="24.9,114.8 -75,67.1 -74.8,67.1 25.1,114.7 24.9,114.8 				"/>
				<polygon fill="#E6D9FF" points="640.8,114.8 540.9,67.1 541.1,67.1 641,114.7 640.9,114.8 				"/>
				<polygon fill="#E6D9FF" points="332.8,114.8 233,67.1 233.1,67.1 333,114.7 332.9,114.8 				"/>
			</g>
			<g>
				<polygon fill="#BEA4FF" points="-484.7,165.7 -538.7,139.9 -384.9,66.6 -330.8,92.4 -484.6,165.7 				"/>
				<polygon fill="#BEA4FF" points="131.3,165.7 77.2,139.9 231,66.6 285.1,92.4 131.3,165.7 				"/>
				<polygon fill="#BEA4FF" points="439.2,165.7 385.2,139.9 539,66.6 593.1,92.4 439.3,165.7 				"/>
				<polygon fill="#BEA4FF" points="-176.7,165.7 -230.7,139.9 -76.9,66.6 -22.9,92.4 -176.6,165.7 				"/>
				<polygon fill="#BEA4FF" points="747.2,165.7 693.2,139.9 847,66.6 901,92.4 747.3,165.7 				"/>
				<polygon fill="#BEA4FF" points="-1154.8,140 -1154.8,140 -1000.8,66.6 -946.8,92.4 -1100.5,165.7 -1100.6,165.7 -1100.6,237.6 
					-1154.8,237.6 				"/>
				<polygon fill="#BEA4FF" points="-792.6,165.7 -846.7,139.9 -692.9,66.6 -638.8,92.4 -792.6,165.7 				"/>
				<polygon fill="#BEA4FF" points="1055.2,165.7 1001.1,139.9 1154.9,66.6 1209,92.4 1055.2,165.7 				"/>
				<polygon fill="#BEA4FF" points="-538.9,140 -638.8,92.4 -638.6,92.3 -538.7,139.9 -538.9,140 				"/>
				<polygon fill="#BEA4FF" points="-846.9,140 -946.8,92.4 -946.6,92.3 -846.7,139.9 -846.8,140 				"/>
				<polygon fill="#BEA4FF" points="-231,140 -330.8,92.4 -330.7,92.3 -230.7,139.9 -230.9,140 				"/>
				<polygon fill="#BEA4FF" points="1000.9,140 901,92.4 901.2,92.3 1001.1,139.9 1001,140 				"/>
				<polygon fill="#BEA4FF" points="77,140 -22.9,92.4 -22.7,92.3 77.2,139.9 77.1,140 				"/>
				<polygon fill="#BEA4FF" points="692.9,140 593.1,92.4 593.2,92.3 693.2,139.9 693,140 				"/>
				<polygon fill="#BEA4FF" points="385,140 285.1,92.4 285.3,92.3 385.2,139.9 385,140 				"/>
			</g>
			<g>
				<polygon fill="#B397FF" points="-377,217.1 -431,191.3 -277.2,118 -223.1,143.8 -376.9,217.1 				"/>
				<polygon fill="#B397FF" points="239,217.1 184.9,191.3 338.7,118 392.8,143.8 239.1,217.1 				"/>
				<polygon fill="#B397FF" points="546.9,217.1 492.9,191.3 646.7,118 700.8,143.8 547,217.1 				"/>
				<polygon fill="#B397FF" points="-69,217.1 -123,191.3 30.8,118 84.8,143.8 -68.9,217.1 				"/>
				<polygon fill="#B397FF" points="854.9,217.1 800.9,191.3 954.7,118 1008.7,143.8 855,217.1 				"/>
				<polygon fill="#B397FF" points="-1047.1,191.4 -1047.1,191.4 -893.1,118 -839.1,143.8 -992.8,217.1 -992.9,217.1 -992.9,289 
					-1047.1,289 				"/>
				<polygon fill="#B397FF" points="-684.9,217.1 -739,191.3 -585.2,118 -531.1,143.8 -684.8,217.1 				"/>
				<polygon fill="#B397FF" points="1162.9,217.1 1108.8,191.3 1262.7,118 1316.7,143.8 1163,217.1 				"/>
				<polygon fill="#B397FF" points="-431.2,191.4 -531.1,143.8 -530.9,143.7 -431,191.3 -431.1,191.4 				"/>
				<polygon fill="#B397FF" points="-739.2,191.4 -839.1,143.8 -838.9,143.7 -739,191.3 -739.1,191.4 				"/>
				<polygon fill="#B397FF" points="-123.3,191.4 -223.1,143.8 -222.9,143.7 -123,191.3 -123.2,191.4 				"/>
				<polygon fill="#B397FF" points="1108.6,191.4 1008.7,143.8 1008.9,143.7 1108.8,191.3 1108.7,191.4 				"/>
				<polygon fill="#B397FF" points="184.7,191.4 84.8,143.8 85,143.7 184.9,191.3 184.8,191.4 				"/>
				<polygon fill="#B397FF" points="800.6,191.4 700.8,143.8 701,143.7 800.9,191.3 800.7,191.4 				"/>
				<polygon fill="#B397FF" points="492.7,191.4 392.8,143.8 393,143.7 492.9,191.3 492.8,191.4 				"/>
			</g>
			<g>
				<polygon fill="#D9C7FF" points="-430.8,191.4 -484.9,165.6 -331.1,92.3 -277,118.1 -430.7,191.4 				"/>
				<polygon fill="#D9C7FF" points="185.1,191.4 131.1,165.6 284.9,92.3 339,118.1 185.2,191.4 				"/>
				<polygon fill="#D9C7FF" points="493.1,191.4 439,165.6 592.8,92.3 646.9,118.1 493.2,191.4 				"/>
				<polygon fill="#D9C7FF" points="-122.9,191.4 -176.9,165.6 -23.1,92.3 31,118.1 -122.8,191.4 				"/>
				<polygon fill="#D9C7FF" points="801,191.4 747,165.6 900.8,92.3 954.9,118.1 801.1,191.4 				"/>
				<polygon fill="#D9C7FF" points="-1101,165.7 -1100.9,165.7 -947,92.3 -892.9,118.1 -1046.7,191.4 -1046.7,191.4 -1046.7,263.3 
					-1101,263.3 				"/>
				<polygon fill="#D9C7FF" points="-738.8,191.4 -792.8,165.6 -639,92.3 -584.9,118.1 -738.7,191.4 				"/>
				<polygon fill="#D9C7FF" points="1109,191.4 1055,165.6 1208.8,92.3 1262.9,118.1 1109.1,191.4 				"/>
				<polygon fill="#D9C7FF" points="-485.1,165.7 -584.9,118.1 -584.8,118 -484.9,165.6 -485,165.7 				"/>
				<polygon fill="#D9C7FF" points="-793,165.7 -892.9,118.1 -892.7,118 -792.8,165.6 -793,165.7 				"/>
				<polygon fill="#D9C7FF" points="-177.1,165.7 -277,118.1 -276.8,118 -176.9,165.6 -177,165.7 				"/>
				<polygon fill="#D9C7FF" points="1054.8,165.7 954.9,118.1 955.1,118 1055,165.6 1054.8,165.7 				"/>
				<polygon fill="#D9C7FF" points="130.9,165.7 31,118.1 31.2,118 131.1,165.6 130.9,165.7 				"/>
				<polygon fill="#D9C7FF" points="746.8,165.7 646.9,118.1 647.1,118 747,165.6 746.9,165.7 				"/>
				<polygon fill="#D9C7FF" points="438.8,165.7 339,118.1 339.1,118 439,165.6 438.9,165.7 				"/>
			</g>
		</g>
	</g>
	<radialGradient id="SVGID_3_" cx="116.5" cy="116.5" r="113.8791" gradientUnits="userSpaceOnUse">
		<stop  offset="0" style="stop-color:#FFFFFF;stop-opacity:0"/>
		<stop  offset="0.8642" style="stop-color:#FFFFFF;stop-opacity:0.4321"/>
		<stop  offset="1" style="stop-color:#FFFFFF;stop-opacity:0.5"/>
	</radialGradient>
	<path fill="url(#SVGID_3_)" d="M230.4,115.5c0.5,63.7-51.2,115.4-114.9,114.9c-60.9-0.5-112.4-52-112.9-112.9
		C2.1,53.8,53.8,2.1,117.5,2.6C178.4,3.1,229.9,54.6,230.4,115.5z"/>
</g>
</svg>
