<?xml version="1.0" encoding="utf-8"?>
<!-- Generator: Adobe Illustrator 18.0.0, SVG Export Plug-In . SVG Version: 6.00 Build 0)  -->
<svg version="1.1" id="Layer_1" xmlns="http://www.w3.org/2000/svg" xmlns:xlink="http://www.w3.org/1999/xlink" x="0px" y="0px"
	 viewBox="0 0 150 150" enable-background="new 0 0 150 150" xml:space="preserve">
<g>
	<g>
		<path fill="#FFFFFF" d="M75,149c-40.8,0-74-33.2-74-74S34.2,1,75,1c40.8,0,74,33.2,74,74S115.8,149,75,149z"/>
		<path fill="#7F47DD" d="M75,2c40.3,0,73,32.7,73,73s-32.7,73-73,73S2,115.3,2,75S34.7,2,75,2 M75,0C33.6,0,0,33.6,0,75
			s33.6,75,75,75s75-33.6,75-75S116.4,0,75,0L75,0z"/>
	</g>
	<g opacity="0.77">
		<path fill="#7F47DD" d="M75,55.9c-11.2,0-20.2,9.1-20.2,20.2S63.8,96.4,75,96.4s20.2-9.1,20.2-20.2S86.2,55.9,75,55.9z M75,92.6
			c-9.1,0-16.4-7.4-16.4-16.4c0-7.9,5.6-14.5,13.1-16.1c-1.1,2.2-1.7,4.6-1.7,7.2c0,9.1,7.4,16.4,16.4,16.4c1.2,0,2.3-0.1,3.4-0.3
			C87.1,88.8,81.5,92.6,75,92.6z"/>
		<path fill="#7F47DD" d="M75,101.7c-1.4,0-2.5,1.1-2.5,2.5v3.2c0,1.4,1.1,2.5,2.5,2.5s2.5-1.1,2.5-2.5v-3.2
			C77.5,102.9,76.4,101.7,75,101.7z"/>
		<path fill="#7F47DD" d="M75,50.5c1.4,0,2.5-1.1,2.5-2.5v-3.2c0-1.4-1.1-2.5-2.5-2.5s-2.5,1.1-2.5,2.5V48
			C72.5,49.4,73.6,50.5,75,50.5z"/>
		<path fill="#7F47DD" d="M106.3,73.6h-3.2c-1.4,0-2.5,1.1-2.5,2.5c0,1.4,1.1,2.5,2.5,2.5h3.2c1.4,0,2.5-1.1,2.5-2.5
			C108.8,74.7,107.7,73.6,106.3,73.6z"/>
		<path fill="#7F47DD" d="M46.9,73.6h-3.2c-1.4,0-2.5,1.1-2.5,2.5c0,1.4,1.1,2.5,2.5,2.5h3.2c1.4,0,2.5-1.1,2.5-2.5
			C49.4,74.7,48.3,73.6,46.9,73.6z"/>
		<path fill="#7F47DD" d="M96.7,94.2c-1-1-2.6-1-3.6,0c-0.5,0.5-0.7,1.1-0.7,1.8c0,0.7,0.3,1.3,0.7,1.8l2.2,2.2
			c0.5,0.5,1.1,0.7,1.8,0.7c0.7,0,1.3-0.3,1.8-0.7c1-1,1-2.6,0-3.6L96.7,94.2z"/>
		<path fill="#7F47DD" d="M53.3,58c0.5,0.5,1.1,0.7,1.8,0.7c0.7,0,1.3-0.3,1.8-0.7c0.5-0.5,0.7-1.1,0.7-1.8c0-0.7-0.3-1.3-0.7-1.8
			l-2.2-2.2c-1-1-2.6-1-3.6,0c-1,1-1,2.6,0,3.6L53.3,58z"/>
		<path fill="#7F47DD" d="M95.3,52.2l-2.2,2.2c-0.5,0.5-0.7,1.1-0.7,1.8c0,0.7,0.3,1.3,0.7,1.8c0.5,0.5,1.1,0.7,1.8,0.7
			c0.7,0,1.3-0.3,1.8-0.7l2.2-2.2c1-1,1-2.6,0-3.6C97.9,51.3,96.3,51.3,95.3,52.2z"/>
		<path fill="#7F47DD" d="M53.3,94.2l-2.2,2.2c-1,1-1,2.6,0,3.6c0.5,0.5,1.1,0.7,1.8,0.7c0.7,0,1.3-0.3,1.8-0.7l2.2-2.2
			c0.5-0.5,0.7-1.1,0.7-1.8c0-0.7-0.3-1.3-0.7-1.8C55.9,93.3,54.3,93.3,53.3,94.2z"/>
	</g>
</g>
</svg>
