<?xml version="1.0" encoding="utf-8"?>
<!-- Generator: Adobe Illustrator 18.0.0, SVG Export Plug-In . SVG Version: 6.00 Build 0)  -->
<svg version="1.1" id="Layer_1" xmlns="http://www.w3.org/2000/svg" xmlns:xlink="http://www.w3.org/1999/xlink" x="0px" y="0px"
	 viewBox="0 0 233 233" enable-background="new 0 0 233 233" xml:space="preserve">
<g>
	<g>
		<path fill="#FFFFFF" d="M116.5,231.5c-63.4,0-115-51.6-115-115c0-63.4,51.6-115,115-115s115,51.6,115,115
			C231.5,179.9,179.9,231.5,116.5,231.5z"/>
		<path fill="#82C3F4" d="M116.5,3c30.3,0,58.8,11.8,80.3,33.2S230,86.2,230,116.5s-11.8,58.8-33.2,80.3S146.8,230,116.5,230
			s-58.8-11.8-80.3-33.2S3,146.8,3,116.5s11.8-58.8,33.2-80.3S86.2,3,116.5,3 M116.5,0C52.2,0,0,52.2,0,116.5S52.2,233,116.5,233
			S233,180.8,233,116.5S180.8,0,116.5,0L116.5,0z"/>
	</g>
	<g>
		<g opacity="0.77">
			<defs>
				<path id="SVGID_1_" opacity="0.77" d="M230.3,115.9c0.5,63.5-51,115-114.5,114.5c-60.7-0.5-112-51.9-112.5-112.5
					C2.7,54.4,54.3,2.8,117.8,3.3C178.5,3.8,229.8,55.2,230.3,115.9z"/>
			</defs>
			<clipPath id="SVGID_2_">
				<use xlink:href="#SVGID_1_"  overflow="visible"/>
			</clipPath>
			<g clip-path="url(#SVGID_2_)">
				<g>
					<path fill="#CFFCFF" d="M1177.3,103h-8.7c-48.3-5.7-51.2-58.5-104.9-58.5c-53.7,0-56.6,52.8-104.9,58.5h-17.4
						c-48.3-5.7-51.2-58.5-104.9-58.5c-53.7,0-56.6,52.8-104.9,58.5h-17.4c-48.3-5.7-51.2-58.5-104.9-58.5
						c-53.7,0-56.6,52.8-104.9,58.5H487c-48.3-5.7-51.2-58.5-104.9-58.5S325.4,97.3,277.2,103h-1h-7.7h-1
						c-48.3-5.7-51.2-58.5-104.9-58.5c-53.7,0-56.6,52.8-104.9,58.5H40.3C-8,97.3-10.9,44.5-64.6,44.5c-53.7,0-56.6,52.8-104.9,58.5
						h-17.4c-48.3-5.7-51.2-58.5-104.9-58.5c-53.7,0-56.6,52.8-104.9,58.5h-17.4c-48.3-5.7-51.2-58.5-104.9-58.5
						c-53.7,0-56.6,52.8-104.9,58.5h-8.7v22.5c28.9-15.9,38.7-51.5,82.9-51.5c53.7,0,56.6,52.8,104.9,58.5h17.4
						c48.3-5.7,51.2-58.5,104.9-58.5c53.7,0,56.6,52.8,104.9,58.5h17.4C-152,126.8-149.1,74-95.3,74c53.7,0,56.6,52.8,104.9,58.5H27
						C75.2,126.8,78.1,74,131.9,74c53.7,0,56.6,52.8,104.9,58.5h1h7.7h1c48.3-5.7,51.2-58.5,104.9-58.5s56.6,52.8,104.9,58.5h17.4
						c48.3-5.7,51.2-58.5,104.9-58.5c53.7,0,56.6,52.8,104.9,58.5h17.4C749.1,126.8,752,74,805.8,74c53.7,0,56.6,52.8,104.9,58.5
						h17.4C976.3,126.8,979.2,74,1033,74c53.7,0,56.6,52.8,104.9,58.5h8.7v40.1h30.7V103z"/>
				</g>
				<g>
					<path fill="#7BE6FF" d="M1085.6,190.5h-8.7c-48.3-5.7-51.2-58.5-104.9-58.5c-53.7,0-56.6,52.8-104.9,58.5h-17.4
						c-48.3-5.7-51.2-58.5-104.9-58.5c-53.7,0-56.6,52.8-104.9,58.5h-17.4c-48.3-5.7-51.2-58.5-104.9-58.5
						c-53.7,0-56.6,52.8-104.9,58.5h-17.4c-48.3-5.7-51.2-58.5-104.9-58.5s-56.6,52.8-104.9,58.5h-1h-7.7h-1
						c-48.3-5.7-51.2-58.5-104.9-58.5c-53.7,0-56.6,52.8-104.9,58.5h-17.4c-48.3-5.7-51.2-58.5-104.9-58.5
						c-53.7,0-56.6,52.8-104.9,58.5h-17.4c-48.3-5.7-51.2-58.5-104.9-58.5c-53.7,0-56.6,52.8-104.9,58.5h-17.4
						c-48.3-5.7-51.2-58.5-104.9-58.5s-56.6,52.8-104.9,58.5h-8.7V213c28.9-15.9,38.7-51.5,82.9-51.5c53.7,0,56.6,52.8,104.9,58.5
						h17.4c48.3-5.7,51.2-58.5,104.9-58.5c53.7,0,56.6,52.8,104.9,58.5h17.4c48.3-5.7,51.2-58.5,104.9-58.5
						c53.7,0,56.6,52.8,104.9,58.5h17.4c48.3-5.7,51.2-58.5,104.9-58.5c53.7,0,56.6,52.8,104.9,58.5h1h7.7h1
						c48.3-5.7,51.2-58.5,104.9-58.5s56.6,52.8,104.9,58.5H382c48.3-5.7,51.2-58.5,104.9-58.5c53.7,0,56.6,52.8,104.9,58.5h17.4
						c48.3-5.7,51.2-58.5,104.9-58.5c53.7,0,56.6,52.8,104.9,58.5h17.4c48.3-5.7,51.2-58.5,104.9-58.5c53.7,0,56.6,52.8,104.9,58.5
						h8.7v40.1h30.7V190.5z"/>
				</g>
				<g>
					<path fill="#92F7FF" d="M1146.5,131.8h-8.7c-48.3-5.7-51.2-58.5-104.9-58.5c-53.7,0-56.6,52.8-104.9,58.5h-17.4
						c-48.3-5.7-51.2-58.5-104.9-58.5c-53.7,0-56.6,52.8-104.9,58.5h-17.4c-48.3-5.7-51.2-58.5-104.9-58.5
						c-53.7,0-56.6,52.8-104.9,58.5h-17.4c-48.3-5.7-51.2-58.5-104.9-58.5s-56.6,52.8-104.9,58.5h-1h-7.7h-1
						c-48.3-5.7-51.2-58.5-104.9-58.5c-53.7,0-56.6,52.8-104.9,58.5H9.5c-48.3-5.7-51.2-58.5-104.9-58.5
						c-53.7,0-56.6,52.8-104.9,58.5h-17.4c-48.3-5.7-51.2-58.5-104.9-58.5c-53.7,0-56.6,52.8-104.9,58.5h-17.4
						c-48.3-5.7-51.2-58.5-104.9-58.5s-56.6,52.8-104.9,58.5h-8.7v22.5c28.9-15.9,38.7-51.5,82.9-51.5c53.7,0,56.6,52.8,104.9,58.5
						h17.4c48.3-5.7,51.2-58.5,104.9-58.5c53.7,0,56.6,52.8,104.9,58.5h17.4c48.3-5.7,51.2-58.5,104.9-58.5
						c53.7,0,56.6,52.8,104.9,58.5h17.4c48.3-5.7,51.2-58.5,104.9-58.5c53.7,0,56.6,52.8,104.9,58.5h1h7.7h1
						c48.3-5.7,51.2-58.5,104.9-58.5s56.6,52.8,104.9,58.5h17.4c48.3-5.7,51.2-58.5,104.9-58.5c53.7,0,56.6,52.8,104.9,58.5h17.4
						c48.3-5.7,51.2-58.5,104.9-58.5c53.7,0,56.6,52.8,104.9,58.5h17.4c48.3-5.7,51.2-58.5,104.9-58.5c53.7,0,56.6,52.8,104.9,58.5
						h8.7v40.1h30.7V131.8z"/>
				</g>
				<g>
					<path fill="#BDFAFF" d="M1116.2,161.2h-8.7c-48.3-5.7-51.2-58.5-104.9-58.5c-53.7,0-56.6,52.8-104.9,58.5h-17.4
						c-48.3-5.7-51.2-58.5-104.9-58.5c-53.7,0-56.6,52.8-104.9,58.5h-17.4c-48.3-5.7-51.2-58.5-104.9-58.5
						c-53.7,0-56.6,52.8-104.9,58.5H426c-48.3-5.7-51.2-58.5-104.9-58.5s-56.6,52.8-104.9,58.5h-1h-7.7h-1
						c-48.3-5.7-51.2-58.5-104.9-58.5c-53.7,0-56.6,52.8-104.9,58.5h-17.4c-48.3-5.7-51.2-58.5-104.9-58.5
						c-53.7,0-56.6,52.8-104.9,58.5h-17.4c-48.3-5.7-51.2-58.5-104.9-58.5c-53.7,0-56.6,52.8-104.9,58.5h-17.4
						c-48.3-5.7-51.2-58.5-104.9-58.5s-56.6,52.8-104.9,58.5h-8.7v22.5c28.9-15.9,38.7-51.5,82.9-51.5c53.7,0,56.6,52.8,104.9,58.5
						h17.4c48.3-5.7,51.2-58.5,104.9-58.5c53.7,0,56.6,52.8,104.9,58.5h17.4c48.3-5.7,51.2-58.5,104.9-58.5
						c53.7,0,56.6,52.8,104.9,58.5h17.4c48.3-5.7,51.2-58.5,104.9-58.5c53.7,0,56.6,52.8,104.9,58.5h1h7.7h1
						c48.3-5.7,51.2-58.5,104.9-58.5S347,185,395.2,190.7h17.4c48.3-5.7,51.2-58.5,104.9-58.5c53.7,0,56.6,52.8,104.9,58.5h17.4
						c48.3-5.7,51.2-58.5,104.9-58.5c53.7,0,56.6,52.8,104.9,58.5H867c48.3-5.7,51.2-58.5,104.9-58.5c53.7,0,56.6,52.8,104.9,58.5
						h8.7v40.1h30.7V161.2z"/>
				</g>
			</g>
		</g>
		<radialGradient id="SVGID_3_" cx="116.791" cy="116.8489" r="113.8791" gradientUnits="userSpaceOnUse">
			<stop  offset="0" style="stop-color:#FFFFFF;stop-opacity:0"/>
			<stop  offset="0.8642" style="stop-color:#FFFFFF;stop-opacity:0.4321"/>
			<stop  offset="1" style="stop-color:#FFFFFF;stop-opacity:0.5"/>
		</radialGradient>
		<path fill="url(#SVGID_3_)" d="M230.7,115.9c0.5,63.7-51.2,115.4-114.9,114.9c-60.9-0.5-112.4-52-112.9-112.9
			C2.4,54.2,54.1,2.4,117.8,3C178.6,3.5,230.1,55,230.7,115.9z"/>
	</g>
</g>
</svg>
