<?xml version="1.0" encoding="utf-8"?>
<!-- Generator: Adobe Illustrator 18.0.0, SVG Export Plug-In . SVG Version: 6.00 Build 0)  -->
<svg version="1.1" id="Layer_1" xmlns="http://www.w3.org/2000/svg" xmlns:xlink="http://www.w3.org/1999/xlink" x="0px" y="0px"
	 viewBox="0 0 150 150" enable-background="new 0 0 150 150" xml:space="preserve">
<g>
	<g>
		<path fill="#FFFFFF" d="M75,149c-40.8,0-74-33.2-74-74S34.2,1,75,1s74,33.2,74,74S115.8,149,75,149z"/>
		<path fill="#82C3F4" d="M75,2c40.3,0,73,32.7,73,73s-32.7,73-73,73S2,115.3,2,75S34.7,2,75,2 M75,0C33.6,0,0,33.6,0,75
			s33.6,75,75,75s75-33.6,75-75S116.4,0,75,0L75,0z"/>
	</g>
	<g transform="translate(0,-952.36218)">
		<path fill="#82C3F4" d="M74.1,992.9c11.6,13,22.4,28.4,22.4,42.2c0,13.8-10,25-22.4,25c-12.4,0-22.4-11.2-22.4-25
			C51.7,1021.3,62.5,1005.9,74.1,992.9L74.1,992.9z M88.6,1031.7c-0.9-0.1-1.7,0.5-1.8,1.4c0,0.1,0,0.2,0,0.4
			c0.5,5.1-2.7,11.9-6.4,14.5c-0.7,0.5-1,1.5-0.5,2.2c0.5,0.7,1.5,1,2.2,0.5c0,0,0.1-0.1,0.1-0.1c5.1-3.5,8.4-10.9,7.8-17.4
			C89.9,1032.4,89.3,1031.8,88.6,1031.7L88.6,1031.7z"/>
	</g>
</g>
</svg>
