<?xml version="1.0" encoding="utf-8"?>
<!-- Generator: Adobe Illustrator 18.0.0, SVG Export Plug-In . SVG Version: 6.00 Build 0)  -->
<svg version="1.1" id="Layer_1" xmlns="http://www.w3.org/2000/svg" xmlns:xlink="http://www.w3.org/1999/xlink" x="0px" y="0px"
	 viewBox="0 0 150 150" enable-background="new 0 0 150 150" xml:space="preserve">
<g>
	<g>
		<path fill="#FFFFFF" d="M75,149c-40.8,0-74-33.2-74-74S34.2,1,75,1c40.8,0,74,33.2,74,74S115.8,149,75,149z"/>
		<path fill="#F87178" d="M75,2c40.3,0,73,32.7,73,73s-32.7,73-73,73S2,115.3,2,75S34.7,2,75,2 M75,0C33.6,0,0,33.6,0,75
			s33.6,75,75,75s75-33.6,75-75S116.4,0,75,0L75,0z"/>
	</g>
	<g opacity="0.77">
		<g>
			<path fill="#F87178" d="M75.5,108.5c-10,0-18.1-8.1-18.1-18.1c0-5.9,3-11.5,7.8-14.9V51.7c0-5.6,4.6-10.2,10.2-10.2
				c5.6,0,10.2,4.6,10.2,10.2v23.8c4.9,3.4,7.8,8.9,7.8,14.9C93.5,100.4,85.4,108.5,75.5,108.5z M75.5,45.8c-3.3,0-6,2.7-6,6v25
				c0,0.7-0.4,1.4-1,1.8c-4.2,2.5-6.8,7-6.8,11.9c0,7.6,6.2,13.8,13.8,13.8c7.6,0,13.8-6.2,13.8-13.8c0-4.8-2.6-9.4-6.8-11.9
				c-0.6-0.4-1-1.1-1-1.8v-25C81.4,48.4,78.8,45.8,75.5,45.8z"/>
		</g>
		<circle fill="#F87178" cx="75.5" cy="90.4" r="11.5"/>
	</g>
</g>
</svg>
