<?xml version="1.0" encoding="utf-8"?>
<!-- Generator: Adobe Illustrator 18.0.0, SVG Export Plug-In . SVG Version: 6.00 Build 0)  -->
<svg version="1.1" id="Layer_1" xmlns="http://www.w3.org/2000/svg" xmlns:xlink="http://www.w3.org/1999/xlink" x="0px" y="0px"
	 viewBox="0 0 233 233" enable-background="new 0 0 233 233" xml:space="preserve">
<g>
	<g>
		<g>
			<path fill="#FFFFFF" d="M116.5,231.5c-63.4,0-115-51.6-115-115c0-63.4,51.6-115,115-115s115,51.6,115,115
				C231.5,179.9,179.9,231.5,116.5,231.5z"/>
			<path fill="#F69695" d="M116.5,3c30.3,0,58.8,11.8,80.3,33.2c21.4,21.4,33.2,49.9,33.2,80.3s-11.8,58.8-33.2,80.3
				c-21.4,21.4-49.9,33.2-80.3,33.2s-58.8-11.8-80.3-33.2C14.8,175.3,3,146.8,3,116.5s11.8-58.8,33.2-80.3C57.7,14.8,86.2,3,116.5,3
				 M116.5,0C52.2,0,0,52.2,0,116.5S52.2,233,116.5,233S233,180.8,233,116.5S180.8,0,116.5,0L116.5,0z"/>
		</g>
		<g>
			<defs>
				<circle id="SVGID_1_" cx="116.5" cy="116.5" r="113.5"/>
			</defs>
			<clipPath id="SVGID_2_">
				<use xlink:href="#SVGID_1_"  overflow="visible"/>
			</clipPath>
			<g clip-path="url(#SVGID_2_)">
				<path fill="#FFECD2" d="M86.5-1112.4v8.6c-5.6,47.9-58,50.7-58,104c0,53.3,52.4,56.2,58,104v17.2c-5.6,47.9-58,50.7-58,104
					c0,53.3,52.4,56.2,58,104v17.2c-5.6,47.9-58,50.7-58,104c0,53.3,52.4,56.2,58,104v17.2c-5.6,47.9-58,50.7-58,104
					s52.4,56.2,58,104v1v7.6v1c-5.6,47.9-58,50.7-58,104c0,53.3,52.4,56.2,58,104v17.2c-5.6,47.9-58,50.7-58,104
					c0,53.3,52.4,56.2,58,104v17.2c-5.6,47.9-58,50.7-58,104c0,53.3,52.4,56.2,58,104v17.2c-5.6,47.9-58,50.7-58,104
					s52.4,56.2,58,104v8.6h22.3c-15.7-28.6-51.1-38.4-51.1-82.2c0-53.3,52.4-56.2,58-104v-17.2c-5.6-47.9-58-50.7-58-104
					c0-53.3,52.4-56.2,58-104v-17.2c-5.6-47.9-58-50.7-58-104c0-53.3,52.4-56.2,58-104V28.3c-5.6-47.9-58-50.7-58-104
					c0-53.3,52.4-56.2,58-104v-1v-7.6v-1c-5.6-47.9-58-50.7-58-104s52.4-56.2,58-104v-17.2c-5.6-47.9-58-50.7-58-104
					c0-53.3,52.4-56.2,58-104v-17.2c-5.6-47.9-58-50.7-58-104c0-53.3,52.4-56.2,58-104v-17.2c-5.6-47.9-58-50.7-58-104
					c0-53.3,52.4-56.2,58-104v-8.6h39.8v-30.5H86.5z"/>
				<path fill="#FFA683" d="M173.3-1021.5v8.6c-5.6,47.9-58,50.7-58,104c0,53.3,52.4,56.2,58,104v17.2c-5.6,47.9-58,50.7-58,104
					c0,53.3,52.4,56.2,58,104v17.2c-5.6,47.9-58,50.7-58,104c0,53.3,52.4,56.2,58,104v17.2c-5.6,47.9-58,50.7-58,104
					s52.4,56.2,58,104v1v7.6v1c-5.6,47.9-58,50.7-58,104c0,53.3,52.4,56.2,58,104V106c-5.6,47.9-58,50.7-58,104
					c0,53.3,52.4,56.2,58,104v17.2c-5.6,47.9-58,50.7-58,104c0,53.3,52.4,56.2,58,104v17.2c-5.6,47.9-58,50.7-58,104
					c0,53.3,52.4,56.2,58,104v8.6h22.3c-15.7-28.6-51.1-38.4-51.1-82.2c0-53.3,52.4-56.2,58-104v-17.2c-5.6-47.9-58-50.7-58-104
					c0-53.3,52.4-56.2,58-104v-17.2c-5.6-47.9-58-50.7-58-104c0-53.3,52.4-56.2,58-104v-17.2c-5.6-47.9-58-50.7-58-104
					c0-53.3,52.4-56.2,58-104v-1v-7.6v-1c-5.6-47.9-58-50.7-58-104s52.4-56.2,58-104v-17.2c-5.6-47.9-58-50.7-58-104
					c0-53.3,52.4-56.2,58-104v-17.2c-5.6-47.9-58-50.7-58-104c0-53.3,52.4-56.2,58-104v-17.2c-5.6-47.9-58-50.7-58-104
					c0-53.3,52.4-56.2,58-104v-8.6h39.8v-30.5H173.3z"/>
				<path fill="#FFC392" d="M115.1-1081.8v8.6c-5.6,47.9-58,50.7-58,104c0,53.3,52.4,56.2,58,104v17.2c-5.6,47.9-58,50.7-58,104
					c0,53.3,52.4,56.2,58,104v17.2c-5.6,47.9-58,50.7-58,104c0,53.3,52.4,56.2,58,104v17.2c-5.6,47.9-58,50.7-58,104
					s52.4,56.2,58,104v1v7.6v1c-5.6,47.9-58,50.7-58,104c0,53.3,52.4,56.2,58,104v17.2c-5.6,47.9-58,50.7-58,104
					c0,53.3,52.4,56.2,58,104v17.2c-5.6,47.9-58,50.7-58,104c0,53.3,52.4,56.2,58,104v17.2c-5.6,47.9-58,50.7-58,104
					s52.4,56.2,58,104v8.6h22.3c-15.7-28.6-51.1-38.4-51.1-82.2c0-53.3,52.4-56.2,58-104v-17.2c-5.6-47.9-58-50.7-58-104
					c0-53.3,52.4-56.2,58-104v-17.2c-5.6-47.9-58-50.7-58-104c0-53.3,52.4-56.2,58-104V58.9c-5.6-47.9-58-50.7-58-104
					c0-53.3,52.4-56.2,58-104v-1v-7.6v-1c-5.6-47.9-58-50.7-58-104s52.4-56.2,58-104v-17.2c-5.6-47.9-58-50.7-58-104
					c0-53.3,52.4-56.2,58-104v-17.2c-5.6-47.9-58-50.7-58-104c0-53.3,52.4-56.2,58-104v-17.2c-5.6-47.9-58-50.7-58-104
					c0-53.3,52.4-56.2,58-104v-8.6h39.8v-30.5H115.1z"/>
				<path fill="#FFE1C0" d="M144.3-1051.8v8.6c-5.6,47.9-58,50.7-58,104c0,53.3,52.4,56.2,58,104v17.2c-5.6,47.9-58,50.7-58,104
					c0,53.3,52.4,56.2,58,104v17.2c-5.6,47.9-58,50.7-58,104c0,53.3,52.4,56.2,58,104v17.2c-5.6,47.9-58,50.7-58,104
					s52.4,56.2,58,104v1v7.6v1c-5.6,47.9-58,50.7-58,104c0,53.3,52.4,56.2,58,104v17.2c-5.6,47.9-58,50.7-58,104
					c0,53.3,52.4,56.2,58,104v17.2c-5.6,47.9-58,50.7-58,104c0,53.3,52.4,56.2,58,104v17.2c-5.6,47.9-58,50.7-58,104
					c0,53.3,52.4,56.2,58,104v8.6h22.3c-15.7-28.6-51.1-38.4-51.1-82.2c0-53.3,52.4-56.2,58-104v-17.2c-5.6-47.9-58-50.7-58-104
					c0-53.3,52.4-56.2,58-104v-17.2c-5.6-47.9-58-50.7-58-104c0-53.3,52.4-56.2,58-104V88.8c-5.6-47.9-58-50.7-58-104
					c0-53.3,52.4-56.2,58-104v-1v-7.6v-1c-5.6-47.9-58-50.7-58-104s52.4-56.2,58-104v-17.2c-5.6-47.9-58-50.7-58-104
					c0-53.3,52.4-56.2,58-104v-17.2c-5.6-47.9-58-50.7-58-104c0-53.3,52.4-56.2,58-104v-17.2c-5.6-47.9-58-50.7-58-104
					c0-53.3,52.4-56.2,58-104v-8.6h39.8v-30.5H144.3z"/>
			</g>
		</g>
	</g>
	<radialGradient id="SVGID_3_" cx="116.5" cy="116.5" r="113.8791" gradientUnits="userSpaceOnUse">
		<stop  offset="0" style="stop-color:#FFFFFF;stop-opacity:0"/>
		<stop  offset="0.8642" style="stop-color:#FFFFFF;stop-opacity:0.4321"/>
		<stop  offset="1" style="stop-color:#FFFFFF;stop-opacity:0.5"/>
	</radialGradient>
	<path fill="url(#SVGID_3_)" d="M230.4,115.5c0.5,63.7-51.2,115.4-114.9,114.9c-60.9-0.5-112.4-52-112.9-112.9
		C2.1,53.8,53.8,2.1,117.5,2.6C178.4,3.1,229.9,54.6,230.4,115.5z"/>
</g>
</svg>
