<?xml version="1.0" encoding="utf-8"?>
<!-- Generator: Adobe Illustrator 18.0.0, SVG Export Plug-In . SVG Version: 6.00 Build 0)  -->
<svg version="1.1" id="Layer_1" xmlns="http://www.w3.org/2000/svg" xmlns:xlink="http://www.w3.org/1999/xlink" x="0px" y="0px"
	 viewBox="0 0 150 150" enable-background="new 0 0 150 150" xml:space="preserve">
<g>
	<g>
		<path fill="#FFFFFF" d="M75,149c-40.8,0-74-33.2-74-74C1,34.2,34.2,1,75,1s74,33.2,74,74C149,115.8,115.8,149,75,149z"/>
		<path fill="#C8C8CE" d="M75,2c40.3,0,73,32.7,73,73s-32.7,73-73,73S2,115.3,2,75S34.7,2,75,2 M75,0C33.6,0,0,33.6,0,75
			s33.6,75,75,75s75-33.6,75-75S116.4,0,75,0L75,0z"/>
	</g>
	<g opacity="0.77">
		<g>
			<path fill="#808080" d="M54.4,103.4c-3.5,0-6.3-2.8-6.3-6.3V64c0-3.5,2.8-6.3,6.3-6.3h20L69.2,63H53.4v35h35V82.2l5.3-5.2v20
				c0,3.5-2.8,6.3-6.3,6.3H54.4z M69.5,77c0.3-0.9,0.8-1.8,1.5-2.5L97.1,48c0.8-0.8,2-1.3,3.2-1.3c1.2,0,2.3,0.5,3.2,1.3
				c0.9,0.8,1.3,2,1.3,3.2c0,1.2-0.5,2.3-1.3,3.2L76.9,80.4c-0.7,0.7-1.6,1.3-2.5,1.6L67,84.5L69.5,77z"/>
			<path fill="#FFFFFF" d="M100.2,47.7c0.9,0,1.8,0.4,2.5,1c1.4,1.4,1.4,3.6,0,4.9L76.2,79.7c-0.6,0.6-1.3,1.1-2.1,1.3l-5.6,1.9
				l1.9-5.6c0.3-0.8,0.7-1.5,1.3-2.1l26-26.5C98.4,48.1,99.3,47.7,100.2,47.7 M72,58.7L68.8,62H54.4h-2v2v33v2h2h33h2v-2V82.7
				l3.3-3.3V97c0,2.9-2.4,5.3-5.3,5.3h-33c-2.9,0-5.3-2.4-5.3-5.3V64c0-2.9,2.4-5.3,5.3-5.3H72 M100.2,45.7c-1.5,0-2.9,0.6-3.9,1.6
				L70.3,73.8c-0.8,0.8-1.4,1.8-1.8,2.9l-2.6,7.9c-0.1,0.4,0.1,0.8,0.5,0.9c0.1,0,0.2,0,0.2,0c0.1,0,0.2,0,0.2,0l7.9-2.6
				c1.1-0.4,2.1-1,2.9-1.8l26.5-26.1c2.1-2.1,2.1-5.6,0-7.8C103.1,46.3,101.7,45.7,100.2,45.7L100.2,45.7z M76.8,56.7H54.4
				c-4.1,0-7.3,3.3-7.3,7.3v33c0,4.1,3.3,7.3,7.3,7.3h33c4.1,0,7.3-3.3,7.3-7.3V74.6l-7.3,7.2V97h-33V64h15.2L76.8,56.7L76.8,56.7z"
				/>
		</g>
	</g>
</g>
</svg>
